<?xml version="1.0"?>
<svg xmlns="http://www.w3.org/2000/svg" xmlns:xlink="http://www.w3.org/1999/xlink" xmlns:svgjs="http://svgjs.com/svgjs" version="1.1" width="512" height="512" x="0" y="0" viewBox="0 0 511.999 511.999" style="enable-background:new 0 0 512 512" xml:space="preserve" class=""><g>
<g xmlns="http://www.w3.org/2000/svg">
	<g>
		<path d="M493.666,491.987h-28.495c28.3-19.924,46.828-52.837,46.828-90c0-60.654-49.346-110-110-110    c-16.455,0-32.074,3.638-46.105,10.143l-27.885-48.298c-0.143-0.248-0.3-0.481-0.46-0.712l67.365-45.671    c19.465-13.196,31.085-35.113,31.085-58.629c0-39.058-31.775-70.833-70.833-70.833h-17.167c-5.522,0-10,4.478-10,10    c0,5.522,4.478,10,10,10h17.167c28.029,0,50.833,22.804,50.833,50.833c0,16.876-8.339,32.604-22.308,42.074l-83.804,56.815    c-2.29,1.553-3.835,3.984-4.267,6.717L270.009,416.58c-0.128,0.814-0.821,1.406-1.646,1.406h-13.031    c-0.919,0-1.666-0.748-1.666-1.667V261.977c0-18.854,10.129-36.445,26.435-45.911l36.919-21.431    c3.91-2.27,5.812-6.882,4.636-11.248c-1.176-4.366-5.135-7.4-9.656-7.4h-72.712l8.609-33.359    c1.38-5.348-1.836-10.802-7.184-12.182c-5.346-1.382-10.801,1.836-12.182,7.184l-13.828,53.581    c-2.372,9.191-10.659,15.611-20.151,15.611h-47.035c-6.462,0-11.72-5.258-11.72-11.721s5.258-11.721,11.72-11.721h8.482h25.562    c5.522,0,10-4.478,10-10v-50.394c0-5.522-4.478-10-10-10c-5.522,0-10,4.478-10,10v40.394h-15.562h-8.482h-46.462    c-10.813,0-20.704,4.986-27.134,13.681c-6.431,8.694-8.304,19.611-5.137,29.953c4.372,14.275,17.341,23.866,32.271,23.866h1.944    c5.522,0,10-4.478,10-10c0-5.522-4.478-10-10-10h-1.944c-6.083,0-11.366-3.907-13.147-9.723c-1.29-4.213-0.527-8.661,2.093-12.204    c2.62-3.542,6.649-5.573,11.055-5.573h16.996c-1.449,3.629-2.254,7.581-2.254,11.721c0,17.491,14.229,31.721,31.72,31.721h20.399    l-27.249,69.521c-9.739-2.832-20.028-4.356-30.668-4.356c-60.654,0-110,49.346-110,110s49.346,110,110,110h108.422    c5.522,0,10-4.478,10-10c0-5.522-4.478-10-10-10h-45.25c28.3-19.924,46.828-52.837,46.828-90    c0-42.947-24.743-80.218-60.719-98.323l13-33.168l61.386,94.781v51.044c0,11.947,9.72,21.667,21.666,21.667h13.031    c10.728,0,19.729-7.69,21.402-18.286l1.218-7.714h1.475c2.99,33.026,20.636,61.884,46.369,80h-26.829c-5.522,0-10,4.478-10,10    c0,5.522,4.478,10,10,10h181.667c5.522,0,10-4.478,10-10C503.666,496.466,499.188,491.987,493.666,491.987z M199.999,401.987    c0,49.626-40.374,90-90,90c-49.626,0-90-40.374-90-90c0-49.626,40.374-90,90-90c8.067,0,15.887,1.073,23.332,3.073l-32.641,83.277    c-2.016,5.143,0.52,10.944,5.661,12.96c1.199,0.47,2.433,0.692,3.646,0.692c3.994,0,7.768-2.41,9.313-6.354l32.632-83.256    C180.497,337.485,199.999,367.499,199.999,401.987z M233.666,261.977v66.506l-52.402-80.909l8.134-20.752h5.154    c18.614,0,34.864-12.589,39.517-30.613l0.248-0.96c1.162,0.473,2.43,0.738,3.762,0.738h36.774l-4.793,2.782    C247.612,211.801,233.666,236.021,233.666,261.977z M384.679,391.987h-72.121c2.836-25.541,16.402-47.891,36.079-62.427    L384.679,391.987z M313.59,268.858l24.997,43.296c-18.305,12.959-32.489,31.367-40.18,52.839L313.59,268.858z M312.558,411.987    h89.441c3.572,0,6.874-1.906,8.66-5s1.786-6.906,0-10l-44.717-77.452c11.046-4.849,23.241-7.548,36.057-7.548    c49.626,0,90,40.374,90,90c0,49.626-40.374,90-90,90C355.753,491.987,317.548,456.924,312.558,411.987z" fill="#4a4848" data-original="#000000" style=""/>
	</g>
</g>
<g xmlns="http://www.w3.org/2000/svg">
	<g>
		<path d="M266.568,494.917c-1.859-1.861-4.439-2.93-7.069-2.93s-5.21,1.069-7.07,2.93c-1.86,1.861-2.93,4.44-2.93,7.07    s1.069,5.21,2.93,7.069c1.86,1.86,4.44,2.931,7.07,2.931s5.21-1.07,7.069-2.931c1.86-1.859,2.931-4.439,2.931-7.069    S268.429,496.777,266.568,494.917z" fill="#4a4848" data-original="#000000" style=""/>
	</g>
</g>
<g xmlns="http://www.w3.org/2000/svg">
	<g>
		<path d="M180.712,20.529l-5.373-5.373c-20.193-20.193-53.051-20.193-73.244,0s-20.193,53.051,0,73.244l5.373,5.373    c10.098,10.098,23.357,15.145,36.622,15.145c13.261,0,26.526-5.05,36.622-15.145C200.905,73.58,200.905,40.722,180.712,20.529z     M166.569,79.631c-12.396,12.396-32.565,12.396-44.959,0l-5.373-5.373c-12.395-12.396-12.395-32.564,0-44.959    c6.197-6.198,14.339-9.297,22.479-9.297c8.14,0,16.283,3.098,22.48,9.297l5.373,5.373    C178.965,47.068,178.965,67.235,166.569,79.631z" fill="#4a4848" data-original="#000000" style=""/>
	</g>
</g>
<g xmlns="http://www.w3.org/2000/svg">
	<g>
		<path d="M310.068,80.917c-1.859-1.86-4.439-2.93-7.069-2.93s-5.21,1.069-7.07,2.93c-1.86,1.861-2.93,4.44-2.93,7.07    s1.069,5.21,2.93,7.069c1.86,1.861,4.44,2.931,7.07,2.931s5.21-1.07,7.069-2.931c1.86-1.859,2.931-4.439,2.931-7.069    S311.929,82.777,310.068,80.917z" fill="#4a4848" data-original="#000000" style=""/>
	</g>
</g>
<g xmlns="http://www.w3.org/2000/svg">
	<g>
		<path d="M263.332,77.987h-53.333c-5.522,0-10,4.478-10,10c0,5.522,4.478,10,10,10h53.333c5.522,0,10-4.478,10-10    C273.332,82.465,268.854,77.987,263.332,77.987z" fill="#4a4848" data-original="#000000" style=""/>
	</g>
</g>
<g xmlns="http://www.w3.org/2000/svg">
</g>
<g xmlns="http://www.w3.org/2000/svg">
</g>
<g xmlns="http://www.w3.org/2000/svg">
</g>
<g xmlns="http://www.w3.org/2000/svg">
</g>
<g xmlns="http://www.w3.org/2000/svg">
</g>
<g xmlns="http://www.w3.org/2000/svg">
</g>
<g xmlns="http://www.w3.org/2000/svg">
</g>
<g xmlns="http://www.w3.org/2000/svg">
</g>
<g xmlns="http://www.w3.org/2000/svg">
</g>
<g xmlns="http://www.w3.org/2000/svg">
</g>
<g xmlns="http://www.w3.org/2000/svg">
</g>
<g xmlns="http://www.w3.org/2000/svg">
</g>
<g xmlns="http://www.w3.org/2000/svg">
</g>
<g xmlns="http://www.w3.org/2000/svg">
</g>
<g xmlns="http://www.w3.org/2000/svg">
</g>
</g></svg>
