<?xml version="1.0"?>
<svg xmlns="http://www.w3.org/2000/svg" xmlns:xlink="http://www.w3.org/1999/xlink" xmlns:svgjs="http://svgjs.com/svgjs" version="1.1" width="512" height="512" x="0" y="0" viewBox="0 0 64 64" style="enable-background:new 0 0 512 512" xml:space="preserve" class=""><g><g xmlns="http://www.w3.org/2000/svg"><path d="m23 21c2.757 0 5-2.243 5-5s-2.243-5-5-5-5 2.243-5 5 2.243 5 5 5zm0-8c1.654 0 3 1.346 3 3s-1.346 3-3 3-3-1.346-3-3 1.346-3 3-3z" fill="#4a4848" data-original="#000000" style=""/><path d="m63 26c0-13.785-11.215-25-25-25-6.029 0-11.826 2.177-16.369 6.12-1.708.264-3.32 1.001-4.625 2.166-1.91 1.707-3.006 4.154-3.006 6.714 0 1.831.559 3.553 1.529 5h-4.529v6h2v2c0 2.206 1.794 4 4 4h2v4h-2c-2.206 0-4 1.794-4 4s1.794 4 4 4h2v2h-1.382c-1.444 0-2.618 1.175-2.618 2.618 0 .404.096.81.276 1.171l1.025 2.05c-3.861-.74-6.853-3.955-7.255-7.924 1.123-.295 1.954-1.319 1.954-2.533 0-.404-.096-.81-.276-1.171l-2.382-4.764c-.446-.892-1.344-1.447-2.342-1.447s-1.896.555-2.342 1.447l-2.382 4.764c-.18.361-.276.767-.276 1.171 0 1.241.868 2.283 2.029 2.551.483 7.838 7.013 14.067 14.971 14.067h1.382l1.276 2.553c.446.892 1.344 1.447 2.342 1.447s1.896-.555 2.342-1.447l1.276-2.553h1.382c5.843 0 10.905-3.365 13.381-8.252 12.378-1.669 21.619-12.15 21.619-24.748zm-2.355-4h-14.645c-.551 0-1-.449-1-1s.449-1 1-1h4c1.654 0 3-1.346 3-3v-1c0-1.654-1.346-3-3-3h-5.838c-1.46 0-2.751-.931-3.213-2.316-.735-2.204-2.789-3.684-5.111-3.684h-.509c-.671 0-1.321-.197-1.879-.569l-3.138-2.092c2.448-.869 5.042-1.339 7.688-1.339 11.317 0 20.745 8.219 22.645 19zm-42.307-11.222c1.506-1.345 3.454-1.961 5.481-1.731 3.147.355 5.721 2.891 6.121 6.029.404 3.17-1.371 6.218-4.316 7.411l-.624.252v8.261h-4v-8.261l-.625-.253c-2.658-1.077-4.375-3.623-4.375-6.486 0-1.991.853-3.895 2.338-5.222zm10.304 12.222h4.358v2h-6v-.941c.593-.295 1.14-.653 1.642-1.059zm-15.642 0h4.375c.501.401 1.035.768 1.625 1.06v.94h-6zm4 8c-1.103 0-2-.897-2-2v-2h4v4zm8 2v10h-4v-10zm2 0h2c1.103 0 2 .897 2 2s-.897 2-2 2h-2zm-10 10c-1.103 0-2-.897-2-2s.897-2 2-2h2v4zm1 14c-7.168 0-13-5.832-13-13v-1h-1.382c-.341 0-.618-.277-.618-.618 0-.096.022-.191.065-.276l2.382-4.764c.211-.422.895-.422 1.105 0l2.382 4.764c.044.084.066.18.066.276 0 .341-.277.618-.618.618h-1.382v1c0 5.851 4.596 10.636 10.366 10.968l1.016 2.032zm5.553 3.658c-.211.422-.895.422-1.105 0l-5.382-10.764c-.044-.084-.066-.18-.066-.276 0-.341.277-.618.618-.618h3.382v-4h4v4h3.382c.341 0 .618.277.618.618 0 .096-.022.191-.065.276zm4.447-3.658h-.382l1.016-2.032c5.77-.332 10.366-5.117 10.366-10.968v-1h-1.382c-.341 0-.618-.277-.618-.618 0-.096.022-.191.065-.276l2.382-4.764c.211-.422.895-.422 1.105 0l2.382 4.764c.044.084.066.18.066.276 0 .341-.277.618-.618.618h-1.382v1c0 7.168-5.832 13-13 13zm14.971-12.067c1.161-.268 2.029-1.31 2.029-2.551 0-.404-.096-.81-.276-1.171l-2.382-4.764c-.446-.892-1.344-1.447-2.342-1.447s-1.896.555-2.342 1.447l-2.382 4.764c-.18.361-.276.767-.276 1.171 0 1.214.831 2.238 1.954 2.533-.403 3.969-3.395 7.184-7.255 7.924l1.025-2.05c.18-.361.276-.767.276-1.171 0-1.443-1.174-2.618-2.618-2.618h-1.382v-2h6v-2h-6v-4h2c2.206 0 4-1.794 4-4s-1.794-4-4-4h-2v-4h8v-6h-4.534c1.183-1.77 1.743-3.949 1.459-6.178-.482-3.784-3.419-6.887-7.118-7.642 1.042-.731 2.132-1.38 3.272-1.926l4.261 2.841c.888.592 1.921.905 2.989.905h.509c1.46 0 2.751.931 3.213 2.316.735 2.204 2.789 3.684 5.111 3.684h5.838c.551 0 1 .449 1 1v1c0 .551-.449 1-1 1h-4c-1.654 0-3 1.346-3 3s1.346 3 3 3h14.908c.057.66.092 1.326.092 2s-.037 1.34-.093 2h-7.03c-2.158 0-4.071 1.295-4.874 3.299l-.557 1.393c-.128.321-.391.568-.719.678-1.631.544-2.727 2.064-2.727 3.783 0 1.52.844 2.887 2.204 3.567 1.108.554 1.796 1.668 1.796 2.906v2.582c-2.067 1.121-4.328 1.941-6.737 2.388.377-1.168.63-2.391.708-3.663zm8.029.049v-1.356c0-2.001-1.112-3.8-2.901-4.694-.678-.339-1.099-1.021-1.099-1.779 0-.857.546-1.614 1.36-1.886.888-.297 1.596-.965 1.943-1.833l.557-1.393c.496-1.239 1.681-2.041 3.016-2.041h6.767c-1.078 6.199-4.623 11.549-9.643 14.982z" fill="#4a4848" data-original="#000000" style=""/></g></g></svg>
