<?xml version="1.0"?>
<svg xmlns="http://www.w3.org/2000/svg" xmlns:xlink="http://www.w3.org/1999/xlink" xmlns:svgjs="http://svgjs.com/svgjs" version="1.1" width="512" height="512" x="0" y="0" viewBox="0 0 512 512" style="enable-background:new 0 0 512 512" xml:space="preserve" class=""><g><g xmlns="http://www.w3.org/2000/svg" id="outline"><path d="M333.292,395.817a8,8,0,0,0-11.3.593L309.37,410.433a8,8,0,0,0,11.891,10.7l12.624-14.023A8,8,0,0,0,333.292,395.817Z" fill="#4a4848" data-original="#000000" style="" class=""/><path d="M371.163,353.749a8,8,0,0,0-11.3.593l-18.936,21.034a8,8,0,1,0,11.892,10.705l18.935-21.034A8,8,0,0,0,371.163,353.749Z" fill="#4a4848" data-original="#000000" style="" class=""/><path d="M291.134,394.04a8,8,0,0,0-11.293.686l-18.86,21.3a8,8,0,1,0,11.978,10.607l18.86-21.3A8,8,0,0,0,291.134,394.04Z" fill="#4a4848" data-original="#000000" style="" class=""/><path d="M316.966,376.938l25.148-28.395a8,8,0,0,0-11.978-10.608L304.989,366.33a8,8,0,1,0,11.977,10.608Z" fill="#4a4848" data-original="#000000" style="" class=""/><path d="M490.584,248.135a8,8,0,0,0-1.148-9.327c-.149-.159-.306-.305-.464-.45-.384-1.719-.814-3.437-1.306-5.152a87.616,87.616,0,0,0-19.283-34.761,8,8,0,0,0-6.4-6.836c-.208-.04-.415-.064-.622-.088a88.555,88.555,0,0,0-40.151-20.207,8,8,0,0,0-9.184-1.75c-.182.085-.355.183-.528.279a88.193,88.193,0,0,0-44.318,7.278,8,8,0,0,0-8.528,3.972c-.105.19-.195.383-.283.577a87.627,87.627,0,0,0-15.959,12.041l-28.612-18.7,7.3-5a60.488,60.488,0,0,1,29.217-10.381,50.18,50.18,0,0,0,39.864-25.736,8,8,0,0,0-6-11.815l-36.319-4.588a76.616,76.616,0,0,0-50,10.969l-28.3,17.645L238.78,125.98a22.268,22.268,0,0,0-16.574-3.2,7.98,7.98,0,0,0-5.725-2.805l-97.1-4.129-1.656-2.416,25.469-14.726a8,8,0,0,0,3.86-5.459l5.093-27.306,27.306,5.093a8,8,0,0,0,9.157-10.07l-4.41-15.38a8,8,0,0,0-3.812-4.792L136.521,16.48a50.47,50.47,0,0,0-38.636-4.4,51.12,51.12,0,0,0-26.5,18.17L55.851,50.763A8,8,0,0,0,56.336,61l5.287,5.756A41.219,41.219,0,0,0,45.468,76.972a90.725,90.725,0,0,0-25.906,64.914l4.719,71.6A44.957,44.957,0,0,0,65.64,246.056l42.266,1.8L20,292.655a8,8,0,0,0,.126,13.923l19.79,10.97a8,8,0,0,0,6.084.693l24.868-7.131,10.327,9.643a8,8,0,0,0,7.665,1.843l36.635-10.5,33.314,6.213c.055.01.11.013.165.022l1.613,4.255a87.365,87.365,0,0,0-36.086-1.326,8,8,0,0,0-9.257,1.732c-.155.164-.3.335-.434.508-1.69.493-3.374,1.019-5.043,1.616A87.63,87.63,0,0,0,76.3,346.579a8,8,0,0,0-6.41,6.827c-.027.21-.038.418-.049.626a88.558,88.558,0,0,0-17.6,41.362,8,8,0,0,0-1.159,9.275c.094.172.208.326.312.487a87.978,87.978,0,0,0,10.1,43.772A8,8,0,0,0,66,457.2c.2.093.4.167.595.242a87.971,87.971,0,0,0,33.819,29.395,7.984,7.984,0,0,0,8.53,4.091c.235-.045.464-.1.691-.167a87.518,87.518,0,0,0,44.651,3.955,7.985,7.985,0,0,0,9.224-1.743c.155-.164.3-.336.435-.51,1.685-.491,3.368-1.016,5.043-1.614a87.637,87.637,0,0,0,33.453-21.462,8,8,0,0,0,6.416-6.833c.027-.21.038-.419.049-.627a88.56,88.56,0,0,0,17.6-41.361,8,8,0,0,0,1.159-9.276c-.1-.177-.2-.342-.312-.508a87.889,87.889,0,0,0-5.111-32.414,88.935,88.935,0,0,0-4.988-11.331,8,8,0,0,0-4.506-8.275c-.194-.091-.39-.167-.586-.241q-1.349-1.986-2.806-3.9l27.871-7.991a8,8,0,0,0,3.206-1.8l65.876-60.5a8,8,0,0,0,1.186-10.416L280.543,234.6l2.669-26.266,35.726,23.355a86.931,86.931,0,0,0-3.376,35.109,8,8,0,0,0,1.153,9.318c.152.163.313.31.475.458.385,1.719.805,3.435,1.294,5.143a87.641,87.641,0,0,0,19.284,34.762,8,8,0,0,0,6.405,6.835c.209.041.416.067.624.091a88.511,88.511,0,0,0,40.157,20.2,7.964,7.964,0,0,0,9.175,1.751c.169-.078.328-.169.489-.258q4.147.4,8.329.4A88.707,88.707,0,0,0,439,337.8a7.88,7.88,0,0,0,8.5-3.964c.1-.184.188-.371.274-.559a87.978,87.978,0,0,0,31.494-31.879,8,8,0,0,0,4.636-8.262c-.029-.237-.073-.469-.121-.7A87.694,87.694,0,0,0,490.584,248.135Zm-184.259-106.1a60.588,60.588,0,0,1,39.528-8.672l21.953,2.773A34.225,34.225,0,0,1,349,143.678a76.523,76.523,0,0,0-36.957,13.132l-12.735,8.731-14.981-9.792Zm67.057,91.039.061.04,27.119,17.725a6.319,6.319,0,0,1,1.34,9.362,6.331,6.331,0,0,1-8.321,1.17l-163.6-106.945a7.969,7.969,0,0,0,.465-5.586l-2.989-10.421a6.3,6.3,0,0,1,2.568.957Zm45.8,19.878a22.351,22.351,0,0,0-9.834-15.488l-16.017-10.468c.309-.1.616-.2.929-.291a32,32,0,1,1-21.823,39.956l12.368,8.085a22.318,22.318,0,0,0,34.377-21.794ZM168.3,421.671a32,32,0,1,1-39.692-43.826,32.272,32.272,0,0,1,3.469-1.006l-9.365,12.369a22.519,22.519,0,0,0,3.384,30.755,22.287,22.287,0,0,0,14.508,5.349,23.006,23.006,0,0,0,2.353-.121,22.317,22.317,0,0,0,15.449-8.543l12.2-15.631A31.75,31.75,0,0,1,168.3,421.671Zm5.413-64.46a7.98,7.98,0,0,0,6.8,5.114L145.792,406.8a6.512,6.512,0,0,1-10.325-7.937l36.007-47.558Zm12.352-12.555L157.6,269.593l22.4-6.424,13.231,46.141a8,8,0,0,0,6.223,5.659l11.3,2.107A20.108,20.108,0,0,1,226.713,333ZM155.5,195.87,92.622,184.142l.969-22.77a37.823,37.823,0,0,0,21.58,6.748c.774,0,58.234-3.461,58.234-3.461l26.056,8.31a8,8,0,0,0,6.955-1.023l10.313-7.071,2.745,1.795L173.88,204.877A37.929,37.929,0,0,0,155.5,195.87Zm-18.354,62.945-26.008,7.457-1.43-1.556,25.63-12.2Zm76.545,42.533-6.437-1.2-11.868-41.388,25.763-7.387,42.357,50.546-23.123,21.237A36.163,36.163,0,0,0,213.692,301.348Zm4.088-65.655-26.8,7.686-7.388-25.763,49.88-41.8,4.511,2.949Zm-4.3-87.988L200.6,156.537l-14.456-4.611,9.327-16.826,14.575.62ZM177.593,134.34l-8.05,14.524-53.007,3.215a21.919,21.919,0,0,1-19-8.857L75.848,113.979a9.4,9.4,0,0,1,1.2-12.555,9.278,9.278,0,0,1,6.334-2.486A9.624,9.624,0,0,1,84.485,99a9.294,9.294,0,0,1,6.706,4.035l17.251,25.16a8,8,0,0,0,6.258,3.469ZM133.848,76.764l-7.943-6.739,1.157-6.2,9.127.388ZM84.138,39.907A35.031,35.031,0,0,1,102.3,27.458a34.571,34.571,0,0,1,26.469,3.017l40.327,22.353-48.282-5.284a8,8,0,0,0-8.2,6.526l-3.28,17.585a8,8,0,0,0,2.689,7.568l13.339,11.316-13.172,7.616L72.637,55.1ZM56.928,88.138a25.285,25.285,0,0,1,17.353-7.6L77.2,83.721A25.41,25.41,0,0,0,63,123.508L78.308,144.16l-1.682,39.563-40.445,5.591-.619-47.636A74.821,74.821,0,0,1,56.928,88.138ZM39.661,209.079l-1.129-3.938,45.613-6.3L152.568,211.6a21.879,21.879,0,0,1,17.113,15.561l5.916,20.63-23.071,6.616-4.41-15.381a8,8,0,0,0-7.35-5.787L66.32,230.071A28.977,28.977,0,0,1,39.661,209.079Zm5.11,92.869-4.535-2.514,11.192-6.471,5.8,5.413Zm81.8-5.932a7.987,7.987,0,0,0-3.672.174l-34.1,9.777L66.6,285.242,94.6,271.913l8.1,8.823a7.991,7.991,0,0,0,8.1,2.279l31.375-9,10.162,26.8Zm37.038,179.763c-1.659.593-3.327,1.1-5,1.563l-11.88-11.21a8,8,0,1,0-10.981,11.638l2.315,2.184a72.039,72.039,0,0,1-23.9-4.588l-3.016-16.02a8,8,0,0,0-15.724,2.961L96,465.4a71.625,71.625,0,0,1-16.655-17.682l7-14.777a8,8,0,1,0-14.461-6.847l-1.366,2.885a71.479,71.479,0,0,1-3.052-24.142L81.8,397a8,8,0,0,0-7.674-14.04l-2.749,1.5a72.562,72.562,0,0,1,11.688-21.294l16.186,2.083a8,8,0,0,0,2.043-15.869l-3.159-.406a71.788,71.788,0,0,1,17.015-8.8c1.652-.59,3.321-1.1,5-1.564l11.883,11.211a8,8,0,1,0,10.98-11.637l-2.332-2.2a71.582,71.582,0,0,1,19.909,3.2l-15.957,21.076a48.154,48.154,0,1,0,37.525,25.962l15.76-20.192c.517.722,1.011,1.46,1.5,2.2l-7,14.785a8,8,0,1,0,14.461,6.846l1.367-2.889a71.67,71.67,0,0,1,3.1,24.121l-14.382,7.863A8,8,0,1,0,204.63,433l2.8-1.531a73.459,73.459,0,0,1-2.98,7.321,72.548,72.548,0,0,1-8.715,14.007l-16.232-2.089a8,8,0,1,0-2.043,15.869l3.19.411A72.36,72.36,0,0,1,163.606,475.779ZM265.69,241.232l24.687,36.008L275.3,291.084l-42.292-50.469,18.75-52.839,16.37,10.7-3.8,37.422A8,8,0,0,0,265.69,241.232Zm173.2,78.681-14.3-7.927a8,8,0,0,0-7.757,13.994l2.8,1.55a71.7,71.7,0,0,1-24.27,1.548l-6.927-14.856a8,8,0,1,0-14.5,6.761l1.349,2.894a73.267,73.267,0,0,1-7.116-3.442,72.521,72.521,0,0,1-13.422-9.593l3.123-16.065a8,8,0,1,0-15.706-3.053l-.614,3.157a72.35,72.35,0,0,1-7.686-17.573c-.483-1.685-.894-3.378-1.253-5.076l11.959-11.153a8,8,0,1,0-10.912-11.7L331.28,251.6A71.126,71.126,0,0,1,333,240.881l22.126,14.463a48.047,48.047,0,0,0,47.88,50.14,48.232,48.232,0,0,0,13.3-1.881,48,48,0,1,0-38.652-86.854l-21.4-13.989a71.726,71.726,0,0,1,10.994-7.755l14.312,7.933a8,8,0,1,0,7.757-13.994l-2.8-1.549a71.693,71.693,0,0,1,24.269-1.549l6.928,14.857a8,8,0,0,0,14.5-6.762l-1.349-2.893A71.923,71.923,0,0,1,451.4,204.082l-3.122,16.065a8,8,0,1,0,15.706,3.053l.613-3.157a72.35,72.35,0,0,1,7.686,17.573c.486,1.694.883,3.391,1.24,5.089l-11.946,11.14a8,8,0,0,0,10.912,11.7l2.328-2.171a72.022,72.022,0,0,1-6.106,23.561l-16.181,1.987a8,8,0,1,0,1.95,15.881l3.122-.383A71.634,71.634,0,0,1,438.894,319.913Z" fill="#4a4848" data-original="#000000" style="" class=""/></g></g></svg>
