<?xml version="1.0"?>
<svg xmlns="http://www.w3.org/2000/svg" xmlns:xlink="http://www.w3.org/1999/xlink" xmlns:svgjs="http://svgjs.com/svgjs" version="1.1" width="512" height="512" x="0" y="0" viewBox="0 0 512.001 512.001" style="enable-background:new 0 0 512 512" xml:space="preserve" class=""><g>
<g xmlns="http://www.w3.org/2000/svg">
	<g>
		<g>
			<path d="M509.5,28.099c-1.6-1.6-3.771-2.499-6.035-2.499H127.565c1.291-6.3-0.33-12.846-4.412-17.815     c-4.082-4.969-10.19-7.83-16.62-7.785h-22.25C71.835-0.018,59.654,3.614,49.249,10.446c-0.318,0.209-0.622,0.44-0.908,0.692     c-8.734,5.946-15.807,14.021-20.55,23.463l-3.708,7.258c-5.402,10.595-7.627,22.524-6.409,34.354l7,69l-7.191,106.946     c-0.988,14.247-0.04,28.562,2.817,42.554l7.867,39.179l-2.008,2.675c-12.059,17.83-20.131,38.051-23.667,59.283l-0.341,1.979     c-2.284,13.274-2.749,26.797-1.383,40.196l6.725,66.304c0.443,4.357,4.112,7.672,8.491,7.671h68.992     c4.168,0,7.726-3.01,8.417-7.121l14.392-85.646c1.979-11.612,2.971-23.371,2.967-35.15v-33.508l6.175-36.9     c1.629-9.525,2.449-19.17,2.45-28.833c0.032-20.106-3.466-40.062-10.333-58.958l-30.083-83.337     c-1.543-4.334-1.886-9.004-0.992-13.517l6.752-31.404c9.327,9.009,21.781,14.053,34.748,14.074h25.067     c9.437,0.155,16.97,7.917,16.842,17.354v5.442c-0.121,15.832,10.638,29.679,26.008,33.475l119.125,28.938     c19.259,4.821,32.692,22.228,32.475,42.079v24.133c-0.258,26.463,16.903,49.951,42.192,57.75l14.658,4.483     c18.098,5.697,31.607,20.869,35.175,39.504l30.8,119.712c3.19,15.842,17.04,27.285,33.2,27.429     c9.426-0.059,17.027-7.736,16.992-17.162V34.134C512,31.871,511.101,29.7,509.5,28.099z M494.98,331.63l-33.603-35.73     l6.525-39.146l27.066,2.707L494.98,331.63z M494.966,242.308l-27.55-2.753l-14.949-52.324l7.499-45.009l34.98-17.487     L494.966,242.308z M494.932,42.667l0.01,62.987l-46.494,23.247c-2.441,1.222-4.151,3.537-4.6,6.229l-7.565,45.392l-30.735,6.145     l-45.342-83.129l53.268-60.871H494.932z M390.79,42.667L343.441,96.78c-2.35,2.695-2.775,6.567-1.067,9.708l21.364,39.168     l-14.531,7.266l-66.683-22.229l7.041-49.338l48.362-38.688H390.79z M310.604,42.667L278.238,68.56l-77.718,7.772l-22.443-33.665     H310.604z M76.799,25.6c-4.655-0.001-8.452,3.729-8.533,8.383l-0.45,25.862l0.441,33.171l-7,32.546     c-1.521,7.589-0.957,15.448,1.633,22.741l30.108,83.392c6.185,17.035,9.336,35.023,9.308,53.146     c-0.001,8.708-0.74,17.4-2.208,25.983l-6.3,37.634c-0.076,0.466-0.115,0.936-0.117,1.408v34.217     c0.004,10.823-0.907,21.627-2.725,32.296l-13.2,78.554H23.691l-5.942-58.637c-1.217-11.853-0.808-23.817,1.217-35.558l0.35-2.017     c2.358-14.206,7.007-27.935,13.767-40.65l0.417,2.033c0.609,2.986,2.765,5.421,5.655,6.386c2.891,0.966,6.077,0.316,8.358-1.704     s3.312-5.104,2.703-8.091l-13.184-65.354c-2.557-12.498-3.406-25.286-2.525-38.013l7.242-107.692     c0.033-0.478,0.025-0.957-0.025-1.434l-7.067-69.716c-0.885-8.561,0.721-17.196,4.625-24.867l3.742-7.321     c3.565-7.106,8.944-13.144,15.592-17.504c0.276-0.185,0.544-0.384,0.8-0.596c7.45-4.677,16.071-7.15,24.867-7.133h22.25     c1.556-0.048,3.015,0.754,3.807,2.094c0.792,1.34,0.792,3.005,0,4.345c-0.792,1.34-2.251,2.142-3.807,2.094H76.799z      M119.466,94.634c-18.867-0.264-33.963-15.745-33.75-34.613V42.667h55.817l-19.566,19.567c-2.283,2.284-3.083,5.66-2.067,8.725     l7.874,23.675H119.466z M160.536,98.897c-4.52-2.509-9.564-3.924-14.729-4.132l-8.049-24.189l23.05-23.046l23.625,35.438     L160.536,98.897z M191.416,151.388c-7.714-1.948-13.081-8.937-12.975-16.892v-5.442c-0.017-6.404-1.818-12.677-5.201-18.116     l25.989-17.325l72.38-7.238l-6.433,45.032l-43.604,27.306L191.416,151.388z M414.544,315.138     c-4.327-2.541-8.927-4.587-13.712-6.1l-14.658-4.483c-17.992-5.779-30.175-22.536-30.125-41.433v-24.133     c0.232-27.729-18.593-51.994-45.508-58.663l-65.803-15.985l29.444-18.439l72.984,24.329c2.148,0.715,4.491,0.549,6.517-0.463     l18.234-9.117l21.658,39.705c1.788,3.28,5.504,5.015,9.167,4.279l34.95-6.988l14.374,50.325l-7.633,45.808L414.544,315.138z      M478.432,480.734l-30.8-119.704c-2.729-13.286-9.31-25.475-18.924-35.043l22.448-16.042l43.827,46.603l0.024,138.387     C486.802,494.761,479.862,488.815,478.432,480.734z" fill="#4a4848" data-original="#000000" style="" class=""/>
			<path d="M57.682,221.984c-4.648,0.782-7.782,5.185-7,9.833l0,0l6.75,40.054c1.169,6.949,1.757,13.983,1.758,21.029v14.3     c0,4.713,3.82,8.533,8.533,8.533s8.533-3.82,8.533-8.533v-14.3c0.001-7.996-0.665-15.978-1.992-23.863l-6.75-40.054     C66.733,224.335,62.33,221.201,57.682,221.984z" fill="#4a4848" data-original="#000000" style="" class=""/>
			<path d="M50.274,391.117c-0.499-3.014-2.57-5.531-5.432-6.6s-6.076-0.529-8.43,1.419s-3.487,5.004-2.972,8.015l6.741,40.054     c1.173,6.948,1.764,13.983,1.766,21.029v14.3c0,4.713,3.82,8.533,8.533,8.533s8.533-3.82,8.533-8.533v-14.3     c-0.005-7.996-0.674-15.977-2-23.863L50.274,391.117z" fill="#4a4848" data-original="#000000" style="" class=""/>
		</g>
	</g>
</g>
<g xmlns="http://www.w3.org/2000/svg">
</g>
<g xmlns="http://www.w3.org/2000/svg">
</g>
<g xmlns="http://www.w3.org/2000/svg">
</g>
<g xmlns="http://www.w3.org/2000/svg">
</g>
<g xmlns="http://www.w3.org/2000/svg">
</g>
<g xmlns="http://www.w3.org/2000/svg">
</g>
<g xmlns="http://www.w3.org/2000/svg">
</g>
<g xmlns="http://www.w3.org/2000/svg">
</g>
<g xmlns="http://www.w3.org/2000/svg">
</g>
<g xmlns="http://www.w3.org/2000/svg">
</g>
<g xmlns="http://www.w3.org/2000/svg">
</g>
<g xmlns="http://www.w3.org/2000/svg">
</g>
<g xmlns="http://www.w3.org/2000/svg">
</g>
<g xmlns="http://www.w3.org/2000/svg">
</g>
<g xmlns="http://www.w3.org/2000/svg">
</g>
</g></svg>
