<?xml version="1.0"?>
<svg xmlns="http://www.w3.org/2000/svg" xmlns:xlink="http://www.w3.org/1999/xlink" xmlns:svgjs="http://svgjs.com/svgjs" version="1.1" width="512" height="512" x="0" y="0" viewBox="0 0 512 512.11122" style="enable-background:new 0 0 512 512" xml:space="preserve" class=""><g><path xmlns="http://www.w3.org/2000/svg" d="m413.929688 0c-18.261719-.0625-35.546876 8.257812-46.882813 22.578125-11.335937 14.316406-15.472656 33.046875-11.222656 50.808594-24.65625-15.195313-56.234375-13.113281-78.683594 5.1875l-58.691406 47.683593-95.574219-45.523437 4.335938-8.652344c2.105468-4.21875.394531-9.34375-3.824219-11.453125-4.21875-2.105468-9.34375-.394531-11.453125 3.824219l-4.496094 8.933594-26.90625-12.800781c-2.777344-1.578126-6.203125-1.476563-8.878906.269531-2.675782 1.746093-4.152344 4.835937-3.828125 8.015625.324219 3.175781 2.394531 5.90625 5.371093 7.074218l26.605469 12.671876-4.976562 9.941406c-2.105469 4.21875-.394531 9.347656 3.824219 11.453125s9.34375.394531 11.453124-3.824219l5.117188-10.238281 88.550781 42.207031-14.90625 12.109375c-5.199219 4.246094-9.597656 9.390625-12.980469 15.1875-11.933593 25.144531-3.644531 55.238281 19.480469 70.722656l81.070313 51.917969-84.113282 37.402344c-14 6.027344-22.546874 20.351562-21.207031 35.53125l-106.871093-65.167969c-2.605469-1.625-5.878907-1.726563-8.578126-.265625-2.699218 1.460938-4.40625 4.257812-4.472656 7.324219-.0625 3.070312 1.523438 5.933593 4.160156 7.507812l313.445313 191.148438c24.949219 15.34375 56.753906 13.820312 80.121094-3.839844 3.769531-2.828125 4.53125-8.179687 1.703125-11.949219-2.824219-3.769531-8.175782-4.535156-11.945313-1.707031-17.796875 13.429687-42 14.585937-60.996093 2.917969l-160.648438-97.976563c.554688-.214843 1.152344-.308593 1.707031-.554687l120.03125-53.378906c23.707031-10.683594 34.621094-38.28125 24.640625-62.292969-3.703125-8.894531-10.050781-16.441407-18.183594-21.613281l-64.101562-45.226563 22.1875-11.09375 30.011719 20.871094 26.453125 18.425781c12.941406 9.285156 30.496094 8.753906 42.855468-1.296875l29.011719 13.796875c2.753907 1.3125 5.996094 1.054688 8.507813-.675781 2.511718-1.726563 3.910156-4.664063 3.667968-7.703125-.238281-3.042969-2.085937-5.722656-4.835937-7.03125l-26.566406-12.648438c2.027343-5.355468 2.652343-11.136718 1.820312-16.800781-1.429687-9.25-6.578125-17.511719-14.253906-22.871094l-22.75-15.792969 2.5625-.539062c9.210937-1.992188 15.0625-11.070312 13.070313-20.28125l-5.117188-23.597656c-.460938-2.132813-1.179688-4.171875-1.828125-6.238282 21.953125 11.671876 48.835937 8.523438 67.5-7.898437 18.664063-16.425781 25.203125-42.691406 16.417969-65.949219-8.78125-23.253906-31.050782-38.6406248-55.910156-38.628906zm-23.738282 192.921875c3.847656 2.675781 6.425782 6.820313 7.128906 11.457031.699219 4.632813-.535156 9.355469-3.417968 13.050782-6.164063 7.113281-16.757813 8.300781-24.347656 2.730468l-20.71875-14.421875-12.507813-8.703125-27.460937-19.097656h-.042969l-7.824219-5.445312c-3.550781-2.464844-6.035156-6.191407-6.945312-10.417969l-3.269532-15.164063c-.964844-4.425781-.128906-9.054687 2.324219-12.863281 2.449219-3.808594 6.3125-6.488281 10.738281-7.445313l17.316406-3.746093c4.605469-.996094 7.535157-5.535157 6.539063-10.140625-.992187-4.609375-5.535156-7.539063-10.140625-6.542969l-17.3125 3.746094c-18.414062 4-30.117188 22.144531-26.164062 40.566406l3.265624 15.171875c1.527344 6.890625 5.15625 13.132812 10.386719 17.871094l-17.5 8.761718c-1.003906.503907-1.898437 1.195313-2.636719 2.039063-3.261718 3.769531-4.714843 8.769531-3.976562 13.699219.675781 4.773437 3.375 9.027344 7.40625 11.671875l64.734375 45.6875c5.332031 3.335937 9.503906 8.238281 11.945313 14.039062 6.40625 15.433594-.609376 33.167969-15.847657 40.035157l-120.0625 53.445312c-4.285156 1.902344-9.160156 1.960938-13.488281.160156-4.328125-1.800781-7.722656-5.300781-9.390625-9.683594-2.894531-8.976562 1.609375-18.667968 10.335937-22.246093l84.113282-37.453125c5.730468-2.550782 9.597656-8.046875 10.070312-14.304688.472656-6.257812-2.527344-12.269531-7.8125-15.65625l-81.066406-51.914062c-15.597656-10.636719-21.375-30.898438-13.730469-48.164063 2.320313-3.863281 5.296875-7.292969 8.800781-10.128906l88.269532-71.679687c20.335937-16.617188 49.964844-15.09375 68.488281 3.523437 7.402344 7.390625 12.507813 16.765625 14.703125 26.992187l5.117188 23.59375-12.109376 2.5625c-4.988281 1.066407-8.871093 5-9.871093 10.003907-1 5.007812 1.066406 10.128906 5.265625 13.035156zm23.738282-90.523437c-23.5625 0-42.667969-19.101563-42.667969-42.664063 0-23.566406 19.105469-42.667969 42.667969-42.667969s42.667968 19.101563 42.667968 42.667969c-.03125 23.550781-19.117187 42.636719-42.667968 42.664063zm0 0" fill="#4a4848" data-original="#000000" style="" class=""/><path xmlns="http://www.w3.org/2000/svg" d="m76.863281 238.933594c3.808594.003906 7.15625-2.515625 8.210938-6.175782 1.050781-3.660156-.449219-7.574218-3.679688-9.59375l-68.265625-42.667968c-4.007812-2.496094-9.28125-1.273438-11.777344 2.730468-2.5 4.007813-1.2773432 9.28125 2.730469 11.777344l68.265625 42.667969c1.359375.832031 2.921875 1.269531 4.515625 1.261719zm0 0" fill="#4a4848" data-original="#000000" style="" class=""/><path xmlns="http://www.w3.org/2000/svg" d="m63.808594 194.96875 68.265625 42.667969c4.003906 2.496093 9.277343 1.273437 11.773437-2.730469 2.5-4.007812 1.277344-9.277344-2.730468-11.777344l-68.265626-42.664062c-4.003906-2.5-9.277343-1.277344-11.777343 2.730468-2.496094 4.003907-1.273438 9.277344 2.734375 11.773438zm0 0" fill="#4a4848" data-original="#000000" style="" class=""/></g></svg>
