<?xml version="1.0"?>
<svg xmlns="http://www.w3.org/2000/svg" xmlns:xlink="http://www.w3.org/1999/xlink" xmlns:svgjs="http://svgjs.com/svgjs" version="1.1" width="512" height="512" x="0" y="0" viewBox="0 0 512 512" style="enable-background:new 0 0 512 512" xml:space="preserve" class=""><g><path xmlns="http://www.w3.org/2000/svg" d="m447.033 468h-25.006v-115.589c9.684-3.165 16.703-12.28 16.703-23.008 0-13.345-10.857-24.203-24.203-24.203h-45.047l-21.514-143.26c-5.853-41.282-42.262-76.156-84.465-78.868v-22.814l49.231-36.715c4.593-3.425 6.396-9.152 4.591-14.59-1.805-5.439-6.674-8.953-12.404-8.953h-48.919c-4.142 0-7.5 3.358-7.5 7.5v75.564c-4.823.388-9.608 1.141-14.294 2.269-4.027.969-6.506 5.02-5.538 9.046.969 4.027 5.02 6.503 9.046 5.538 5.961-1.435 12.113-2.162 18.285-2.162 18.66 0 36.724 6.702 50.868 18.872h-101.737c3.123-2.685 6.475-5.142 10.041-7.336 3.528-2.17 4.629-6.79 2.458-10.318-2.17-3.528-6.789-4.628-10.318-2.458-23.422 14.407-39.196 38.254-43.277 65.426l-21.514 143.26h-45.046c-13.345 0-24.203 10.857-24.203 24.203 0 10.728 7.018 19.843 16.703 23.008v115.588h-25.007c-6.341 0-11.5 5.159-11.5 11.5v10c0 12.407 8.646 22.5 19.272 22.5h366.521c10.627 0 19.272-10.093 19.272-22.5v-10c.001-6.341-5.158-11.5-11.499-11.5zm-183.533-453h35.596l-35.596 26.546zm69.761 150.032 4.347 28.946h-13.181c-4.142 0-7.5 3.358-7.5 7.5s3.358 7.5 7.5 7.5h15.433l7.781 51.811h-12.929c-4.142 0-7.5 3.358-7.5 7.5s3.358 7.5 7.5 7.5h15.182l4.417 29.412h-44.596l-4.03-37.436c-.001-.007-.002-.014-.002-.021l-11.056-102.711h38.634zm-48.966 44.178 5.577 51.812h-67.745l5.577-51.812zm-54.976-15 3.141-29.178h47.08l3.141 29.178zm62.168 81.812 3.141 29.179h-77.255l3.141-29.179zm-99.81-144.396h128.621c3.904 5.69 7.04 11.878 9.321 18.406h-43.363c-.011 0-.021 0-.032 0h-60.454c-.008 0-.016 0-.025 0h-43.383c2.284-6.549 5.423-12.733 9.315-18.406zm-29.571 144.163h15.18c4.142 0 7.5-3.358 7.5-7.5s-3.358-7.5-7.5-7.5h-12.927l7.781-51.811h15.185c4.142 0 7.5-3.358 7.5-7.5s-3.358-7.5-7.5-7.5h-12.933l4.347-28.946h38.634l-11.056 102.711c-.001.007-.002.014-.002.021l-4.03 37.436h-44.596zm-73.835 53.614c0-5.074 4.128-9.203 9.203-9.203h317.053c5.074 0 9.203 4.128 9.203 9.203s-4.128 9.203-9.203 9.203h-89.034c-4.142 0-7.5 3.358-7.5 7.5s3.358 7.5 7.5 7.5h7.751v114.394h-33.318v-77.353c0-10.275-8.36-18.635-18.635-18.635h-50.582c-10.275 0-18.635 8.36-18.635 18.635v77.353h-33.318v-114.394h116.737c4.142 0 7.5-3.358 7.5-7.5s-3.358-7.5-7.5-7.5h-198.019c-5.075 0-9.203-4.128-9.203-9.203zm318.755 24.203v114.394h-18.406v-114.394zm-58.782 85.217v-18.406h25.376v18.406zm25.377 15v14.177h-25.376v-14.177zm-25.377-48.406v-18.406h25.376v18.406zm0-33.405v-18.405h25.376v18.405zm-63.318 18.635v77.353h-57.853v-77.353c0-2.004 1.631-3.635 3.635-3.635h50.582c2.005 0 3.636 1.631 3.636 3.635zm-146.547 48.176v-18.406h25.376v18.406zm25.377 15v14.177h-25.376v-14.177zm-25.377-48.406v-18.406h25.376v18.406zm0-33.405v-18.405h25.376v18.405zm-15-18.406v114.394h-18.406v-114.394zm320.154 135.894c0 4.578-2.53 7.5-4.272 7.5h-366.521c-1.742 0-4.272-2.922-4.272-7.5v-6.5h375.065z" fill="#4a4848" data-original="#000000" style="" class=""/></g></svg>
