<?xml version="1.0"?>
<svg xmlns="http://www.w3.org/2000/svg" xmlns:xlink="http://www.w3.org/1999/xlink" xmlns:svgjs="http://svgjs.com/svgjs" version="1.1" width="512" height="512" x="0" y="0" viewBox="0 0 60 60" style="enable-background:new 0 0 512 512" xml:space="preserve" class=""><g><g xmlns="http://www.w3.org/2000/svg" id="006---Hiking" transform="translate(-1)"><path id="Shape" d="m39 12c3.3137085 0 6-2.6862915 6-6s-2.6862915-6-6-6-6 2.6862915-6 6c.0033074 3.31233757 2.6876624 5.9966926 6 6zm0-10c2.209139 0 4 1.790861 4 4s-1.790861 4-4 4-4-1.790861-4-4 1.790861-4 4-4z" fill="#4a4848" data-original="#000000" style="" class=""/><path id="Shape" d="m3 60h56c.6947884.0010227 1.3403254-.3586134 1.7051109-.9499369.3647854-.5913236.396545-1.3295969.0838891-1.9500631l-1-2c-.3383804-.6772667-1.031915-1.1036993-1.789-1.1h-9v-26.184c1.1951589-.4202307 1.9948642-1.5491146 1.9948642-2.816s-.7997053-2.3957693-1.9948642-2.816v-5.184c0-.5522847-.4477153-1-1-1s-1 .4477153-1 1v5h-2.93c-.3342785.00005-.6464754-.1669303-.832-.445l-4.728-7.092c-1.5197083-2.2834273-4.4696811-3.1300259-6.969-2-.1629019-1.0950526-.9184955-2.0100021-1.963-2.377l-5.671-1.97c-1.5682367-.53817432-3.2765332.29228488-3.822 1.858l-.985 2.831c-.5129135-.1527582-1.0551764.125384-1.2303491.6310814-.1751728.5056974.0788468 1.0596705.5763491 1.2569186l-1.31 3.781c-.5107474-.1468382-1.0471351.1314652-1.2211654.6335985-.1740303.5021332.0750928 1.0526804.5671654 1.2534015-.968 2.795-1.288 3.331-1.1 4.358-1.315649.3155541-2.2572827 1.4726929-2.2988854 2.8250153-.0416028 1.3523224.8271213 2.5651549 2.1208854 2.9609847 6.772 2.357 7.132 2.666 8.38 2.277l-.9 6.338c-.1.688.321.161-7.295 10.426-.9866753 1.2918787-1.0933972 3.0523953-.27 4.454h-11.119c-.75701866-.0034625-1.45043824.4228994-1.789 1.1l-1 2c-.31265588.6204662-.28089634 1.3587395.08388912 1.9500631.36478547.5913235 1.01032247.9509596 1.70511088.9499369zm38.407-6c.3872708-.6573012.5919897-1.406096.593-2.169v-9.931c.0017472-1.4685075-.536377-2.8864221-1.512-3.984l-5.977-6.727c-.2364428-.2651257-.3103447-.6376986-.193-.973l1.83-5.487.842 1.178c.9395999 1.3123214 2.4539885 2.0914795 4.068 2.093h5.942v26zm-9-39.741c1.6027299-.6904702 3.4699181-.1366682 4.437 1.316l4.726 7.089c.5571302.83577 1.4955579 1.3372658 2.5 1.336h3.93c.5522847 0 1 .4477153 1 1s-.4477153 1-1 1h-6.942c-.9684495-.0011585-1.8770644-.4686802-2.441-1.256l-3.8-5.325c-.2014575-.306064-.5541728-.4774387-.9192932-.4466595-.3651205.0307792-.6841686.2587829-.8315454.5942533-.1473769.3354703-.0994787.7246787.1248386 1.0144062l1.524 2.135-2.288 6.863c-.3468003 1.017969-.1174188 2.1438499.6 2.945l5.972 6.721c.6481909.7321632 1.0044718 1.677144 1.001 2.655v9.931c.0297233 1.0907712-.770046 2.0274341-1.852 2.169-.5555747.0412277-1.1031682-.151141-1.5108949-.5307749-.4077268-.3796338-.6386327-.9121249-.6371051-1.4692251v-6.3c-.0052232-1.3482495-.4606557-2.6561221-1.294-3.716l-7.672-8.591c-.9811328-1.2662681-1.2916359-2.9278695-.834-4.463 3.758-11.861 3.8-11.195 3.816-11.295.458-1.355.747-2.662 2.395-3.376zm-5.888 7.465-7.493-2.6 1.309-3.778 7.465 2.593zm-4.547-11.1c.1842009-.5208819.7524343-.79742808 1.276-.621l5.671 1.97c.5174015.1831025.790534.7490044.612 1.268l-.5 1.453c-.2296202.3891018-.4141444.8031069-.55 1.234-.052.166.785.4-7.488-2.471zm.391 20.239-6.5-2.249c-.523447-.1558129-.8500095-.6758305-.763-1.215.0700833-.273156.2501276-.5051082.4973632-.6407562.2472357-.1356481.5395982-.1628862.8076368-.0752438 1.021.355 1.081.406 1.388.372 3.08 1.267 2.989 1.261 3.263 1.261.4778213.0004942.8892331-.3371148.9820049-.8058437s-.1590197-.9376005-.6010049-1.1191563c-4.525-1.861-3.556-1.475-3.823-1.546-.2615656-.2620534-.3491164-.6511682-.225-1l.98-2.83 7.506 2.6c-.373 1.105-1.858 5.531-2.237 6.634-.1814421.5205746-.7499642.7961132-1.271.616zm-5.363 19.875 6.933-9.538c.79-1.063.709-1.6 1.438-6.713.234.325-.53-.549 3.841 4.346l-.512 2.933c-.114.68.294.031-8.444 11.31-.4663595.691689-1.3094816 1.02618-2.123192.8423318-.8137105-.1838481-1.4311266-.8483301-1.554808-1.6733318-.0638206-.5383476.0878806-1.0800861.422-1.507zm12.9-6.879c.6165979-.9294015.9656641-2.0105037 1.009-3.125l2.257 2.527c.5425675.6970537.8361683 1.5556775.834 2.439v6.3c.0034908.7040752.1947316 1.3944752.554 2h-12.48zm-26.9 14.141 1-2h54l1 2z" fill="#4a4848" data-original="#000000" style="" class=""/></g></g></svg>
